<?xml version="1.0" encoding="UTF-8"?>
<svg id="Camada_2" data-name="Camada 2" xmlns="http://www.w3.org/2000/svg" viewBox="0 0 621.44 253.81">
  <defs>
    <style>
      .cls-1 {
        fill: #fff;
        stroke-width: 0px;
      }
    </style>
  </defs>
  <g id="Camada_1-2" data-name="Camada 1">
    <g>
      <path class="cls-1" d="M210.1,196.29c-13.5,0-25.42-2.96-35.76-8.88-10.34-5.92-18.47-14.08-24.38-24.51-5.92-10.42-8.88-22.38-8.88-35.88s2.96-25.71,8.88-36.13c5.92-10.42,14.04-18.59,24.38-24.51,10.33-5.92,22.25-8.88,35.76-8.88s25.17,2.96,35.51,8.88c10.33,5.92,18.46,14.09,24.38,24.51,5.92,10.42,8.88,22.47,8.88,36.13s-2.92,25.47-8.75,35.88c-5.84,10.42-13.92,18.59-24.26,24.51-10.34,5.92-22.25,8.88-35.76,8.88ZM210.1,173.79c8.67,0,16.34-2,23-6,6.67-4,11.88-9.5,15.63-16.5,3.75-7,5.63-15.09,5.63-24.26s-1.88-17.29-5.63-24.38c-3.75-7.08-8.96-12.63-15.63-16.63-6.67-4-14.34-6-23-6s-16.34,2-23.01,6c-6.67,4-11.92,9.54-15.75,16.63-3.84,7.09-5.75,15.21-5.75,24.38s1.91,17.25,5.75,24.26c3.83,7,9.08,12.5,15.75,16.5,6.67,4,14.34,6,23.01,6Z"/>
      <path class="cls-1" d="M348.88,196.29c-13.5,0-25.42-2.96-35.76-8.88-10.34-5.92-18.47-14.08-24.38-24.51-5.92-10.42-8.88-22.38-8.88-35.88s2.96-25.71,8.88-36.13c5.92-10.42,14.04-18.59,24.38-24.51,10.33-5.92,22.25-8.88,35.76-8.88s25.17,2.96,35.51,8.88c10.33,5.92,18.46,14.09,24.38,24.51,5.92,10.42,8.88,22.47,8.88,36.13s-2.92,25.47-8.75,35.88c-5.84,10.42-13.92,18.59-24.26,24.51-10.34,5.92-22.25,8.88-35.76,8.88ZM348.88,173.79c8.67,0,16.34-2,23-6,6.67-4,11.88-9.5,15.63-16.5,3.75-7,5.63-15.09,5.63-24.26s-1.88-17.29-5.63-24.38c-3.75-7.08-8.96-12.63-15.63-16.63-6.67-4-14.34-6-23-6s-16.34,2-23.01,6c-6.67,4-11.92,9.54-15.75,16.63-3.84,7.09-5.75,15.21-5.75,24.38s1.91,17.25,5.75,24.26c3.83,7,9.08,12.5,15.75,16.5,6.67,4,14.34,6,23.01,6Z"/>
      <path class="cls-1" d="M603.93,195.29c-7.34,0-13.84-2-19.5-6-5.67-4-10.09-9.46-13.25-16.38-3.17-6.92-4.75-14.88-4.75-23.88V12.5c0-3.66,1.16-6.67,3.5-9s5.33-3.5,9-3.5,6.67,1.17,9,3.5c2.33,2.34,3.5,5.34,3.5,9v136.53c0,6.17,1.16,11.25,3.5,15.25,2.33,4,5.33,6,9,6h6.25c3.33,0,6.04,1.17,8.13,3.5,2.08,2.34,3.13,5.34,3.13,9s-1.59,6.67-4.75,9c-3.17,2.34-7.25,3.5-12.25,3.5h-.5Z"/>
      <path class="cls-1" d="M69.02,196.29c-13,0-24.72-3.04-35.13-9.13-10.42-6.08-18.67-14.38-24.76-24.88C3.04,151.79,0,139.95,0,126.78s2.79-24.96,8.38-35.38c5.58-10.42,13.21-18.67,22.88-24.76,9.67-6.08,20.59-9.13,32.76-9.13,9.83,0,18.92,2.04,27.26,6.13,8.33,4.09,15.34,9.63,21,16.63V12.75c0-3.83,1.21-6.92,3.63-9.25,2.41-2.33,5.46-3.5,9.13-3.5s6.92,1.17,9.25,3.5c2.33,2.34,3.5,5.42,3.5,9.25v114.03c0,13.17-3.04,25.01-9.13,35.51-6.09,10.5-14.3,18.8-24.63,24.88-10.34,6.09-22,9.13-35.01,9.13ZM69.02,173.79c8.5,0,16.09-2.04,22.75-6.13,6.67-4.08,11.92-9.71,15.75-16.88,3.83-7.17,5.75-15.17,5.75-24.01s-1.92-17-5.75-24.01c-3.84-7-9.09-12.54-15.75-16.63-6.67-4.08-14.25-6.13-22.75-6.13s-15.88,2.04-22.63,6.13c-6.75,4.09-12.09,9.63-16,16.63-3.92,7-5.88,15-5.88,24.01s1.96,16.84,5.88,24.01c3.91,7.17,9.25,12.8,16,16.88,6.75,4.09,14.29,6.13,22.63,6.13Z"/>
      <path class="cls-1" d="M438.4,253.81c-3.67,0-6.71-1.21-9.13-3.63s-3.63-5.46-3.63-9.13v-114.03c.16-13.17,3.25-25.01,9.25-35.51s14.17-18.79,24.51-24.88c10.33-6.08,22.01-9.13,35.01-9.13s24.92,3.04,35.26,9.13c10.33,6.09,18.54,14.38,24.63,24.88,6.08,10.5,9.13,22.34,9.13,35.51s-2.79,24.97-8.38,35.38c-5.59,10.42-13.21,18.67-22.88,24.76-9.67,6.09-20.59,9.13-32.76,9.13-9.84,0-18.88-2.04-27.13-6.13-8.25-4.08-15.3-9.63-21.13-16.63v67.52c0,3.67-1.17,6.71-3.5,9.13-2.34,2.41-5.42,3.63-9.25,3.63ZM494.41,173.79c8.5,0,16.09-2.04,22.76-6.13,6.67-4.08,11.96-9.67,15.88-16.75,3.92-7.08,5.88-15.04,5.88-23.88s-1.96-17.04-5.88-24.13c-3.92-7.08-9.21-12.67-15.88-16.75-6.67-4.08-14.25-6.13-22.76-6.13s-15.88,2.04-22.63,6.13c-6.75,4.09-12.05,9.67-15.88,16.75-3.84,7.09-5.75,15.13-5.75,24.13s1.91,16.8,5.75,23.88c3.83,7.09,9.13,12.67,15.88,16.75,6.75,4.09,14.29,6.13,22.63,6.13Z"/>
    </g>
  </g>
</svg>