<?xml version="1.0" encoding="UTF-8"?>
<svg id="Camada_2" data-name="Camada 2" xmlns="http://www.w3.org/2000/svg" viewBox="0 0 600 600">
  <defs>
    <style>
      .cls-1 {
        fill: #565eef;
      }

      .cls-1, .cls-2 {
        stroke-width: 0px;
      }

      .cls-2 {
        fill: #fff;
      }
    </style>
  </defs>
  <g id="Camada_1-2" data-name="Camada 1">
    <g>
      <rect class="cls-2" x="0" width="600" height="600"/>
      <g>
        <path class="cls-1" d="M4.67,167.72l110.57,110.57c.96-8.75,2.54-17.49,4.8-26.22,7.99-30.86,24.36-58.66,49.1-83.41,10.27-10.27,21.11-19.06,32.51-26.43,17.23-12.35,36.07-20.86,56.53-25.51,29.6-6.73,59.43-5.56,89.51,3.52,29.3,8.85,56.08,25.17,80.34,48.9.32.31.65.6.97.92l171.01,171.01V0H0v163.69c1.6,1.18,3.16,2.52,4.67,4.02Z"/>
        <path class="cls-1" d="M327.95,183.23c-20.68-5.95-41.12-6.5-61.32-1.65-20.21,4.85-38.3,15.27-54.27,31.25-15.67,15.67-26.01,33.67-31.01,54.04-5.01,20.36-4.47,40.8,1.65,61.32,6.04,20.33,17.25,38.72,33.6,55.21,16.49,16.36,34.98,27.48,55.45,33.38,20.68,5.95,41.12,6.5,61.32,1.65,20.21-4.85,38.3-15.27,54.27-31.25s26.01-33.67,31.01-54.04c5.01-20.36,4.47-40.8-1.65-61.32-6.04-20.33-17.25-38.72-33.6-55.21-16.49-16.36-34.98-27.48-55.45-33.38Z"/>
        <path class="cls-1" d="M595.33,432.28l-110.57-110.57c-.96,8.75-2.54,17.49-4.8,26.22-7.99,30.86-24.36,58.66-49.1,83.41-10.27,10.27-21.11,19.06-32.51,26.43-17.23,12.35-36.07,20.86-56.52,25.51-29.6,6.73-59.43,5.56-89.51-3.52-29.3-8.85-56.08-25.17-80.34-48.9-.32-.31-.65-.6-.97-.92L0,258.91v341.09h600v-163.7c-1.6-1.18-3.16-2.52-4.67-4.02Z"/>
      </g>
    </g>
  </g>
</svg>